<svg xmlns="http://www.w3.org/2000/svg" viewBox="0 0 253 135.5"><style>.a{fill:none;stroke-width:5;stroke:#58595B;}</style><path d="M176.2 123.7c-3.5-0.4-11.4-1.6-18.7-7.5 -6.8-5.4-9.6-11.9-11.4-16.3 -1.7-4-5.6-14.6-3.1-27.7 0.8-4.1 1.9-9.9 6.3-15.7 1.9-2.6 5.8-7.6 12.9-9.9 2.1-0.7 7.8-2.5 14.4-0.1 6.7 2.4 10 7.7 11.4 10 6 9.6 3.8 19.8 3.4 21.4 -2.8 12.4-12.9 18.3-14.6 19.2" class="a"/><path d="M177.1 19.8c3.5 0.4 11.4 1.6 18.7 7.5 6.8 5.4 9.6 11.9 11.4 16.3 1.7 4 5.6 14.6 3.1 27.7 -0.8 4.1-1.9 9.9-6.3 15.7 -1.9 2.6-5.8 7.6-12.9 9.9 -2.1 0.7-7.8 2.5-14.4 0.1 -6.7-2.4-10-7.7-11.4-10 -6-9.6-3.8-19.8-3.4-21.4 2.8-12.4 12.9-18.3 14.6-19.2" class="a"/><circle cx="176.7" cy="71.8" r="52.1" class="a"/><text transform="matrix(1 0 0 1 25.9083 119.6983)" font-family="'Palatino-Roman'" font-size="180px" fill="#BA160C">  t:</text></svg>
